<svg width="20" height="22" viewBox="0 0 20 22" fill="none" xmlns="http://www.w3.org/2000/svg">
<g clip-path="url(#clip0_4579_2616)">
<path d="M10 0.243652C4.47297 0.243652 0 4.93982 0 10.7437C0 16.547 4.47254 21.2437 10 21.2437C15.527 21.2437 20 16.5475 20 10.7437C20 4.94027 15.5275 0.243652 10 0.243652ZM6.1307 2.40735C5.82809 3.27274 5.57406 4.15244 5.36902 5.04445C4.76977 4.85328 4.18027 4.62404 3.60172 4.35695C4.3343 3.54881 5.18797 2.8908 6.1307 2.40735ZM2.8257 5.33943C3.57457 5.70357 4.34098 6.00799 5.12266 6.25215C4.89586 7.52335 4.76617 8.81719 4.73539 10.1284H1.19148C1.29941 8.38767 1.86437 6.74012 2.8257 5.33943ZM2.8257 16.1479C1.86437 14.7472 1.29941 13.0996 1.19148 11.3589H4.73539C4.76617 12.6701 4.89586 13.964 5.12266 15.2352C4.34098 15.4793 3.57461 15.7837 2.8257 16.1479ZM3.60172 17.1304C4.18027 16.8633 4.76973 16.634 5.36902 16.4429C5.5741 17.3349 5.82809 18.2146 6.1307 19.08C5.18844 18.5968 4.33469 17.9389 3.60172 17.1304ZM9.41406 19.9926C8.79867 19.9506 8.19543 19.8427 7.61191 19.6716C7.14844 18.5183 6.77852 17.3357 6.50262 16.1294C7.45254 15.9064 8.42445 15.776 9.41406 15.7392V19.9926ZM9.41406 14.5079C8.34188 14.5451 7.28887 14.6846 6.25973 14.9253C6.05527 13.7551 5.93746 12.5648 5.90766 11.3589H9.41406V14.5079ZM9.41406 10.1284H5.90766C5.93746 8.92248 6.05527 7.73216 6.25973 6.56203C7.28887 6.80271 8.34188 6.94216 9.41406 6.97936V10.1284ZM9.41406 5.74815C8.42445 5.71128 7.45254 5.58089 6.50262 5.35789C6.77852 4.15158 7.14844 2.96902 7.61191 1.81566C8.19543 1.64462 8.79867 1.53675 9.41406 1.49471V5.74815ZM17.1743 5.33943C18.1356 6.74012 18.7006 8.38767 18.8085 10.1284H15.2646C15.2338 8.81719 15.1041 7.52335 14.8773 6.25215C15.659 6.00799 16.4254 5.70357 17.1743 5.33943ZM16.3983 4.3569C15.8197 4.62404 15.2303 4.85328 14.631 5.04441C14.4259 4.1524 14.1719 3.2727 13.8693 2.40731C14.8116 2.89051 15.6653 3.5484 16.3983 4.3569ZM10.5859 1.49471C11.2013 1.53675 11.8046 1.64462 12.3881 1.81566C12.8516 2.96902 13.2215 4.15158 13.4974 5.35789C12.5475 5.58089 11.5755 5.71128 10.5859 5.74815V1.49471ZM10.5859 6.97936C11.6581 6.94216 12.7111 6.80271 13.7403 6.56203C13.9447 7.73216 14.0625 8.92248 14.0923 10.1284H10.5859V6.97936ZM12.388 19.6716C11.8046 19.8427 11.2013 19.9506 10.5859 19.9926V15.7392C11.5755 15.776 12.5475 15.9064 13.4974 16.1294C13.2214 17.3357 12.8516 18.5183 12.388 19.6716ZM10.5859 14.5079V11.3589H14.0923C14.0625 12.5648 13.9447 13.7551 13.7403 14.9253C12.7111 14.6846 11.6581 14.5451 10.5859 14.5079ZM13.8693 19.08C14.1719 18.2146 14.4259 17.3349 14.631 16.4429C15.2302 16.634 15.8197 16.8633 16.3983 17.1304C15.6657 17.9385 14.812 18.5965 13.8693 19.08ZM17.1743 16.1479C16.4254 15.7837 15.659 15.4793 14.8773 15.2352C15.1041 13.964 15.2338 12.6701 15.2646 11.3589H18.8085C18.7006 13.0996 18.1356 14.7472 17.1743 16.1479Z" fill="url(#paint0_linear_4579_2616)"/>
</g>
<defs>
<linearGradient id="paint0_linear_4579_2616" x1="8.23529" y1="-10.8291" x2="26.7895" y2="-6.4601" gradientUnits="userSpaceOnUse">
<stop stop-color="#07D8F4"/>
<stop offset="1" stop-color="#0969EF"/>
</linearGradient>
<clipPath id="clip0_4579_2616">
<rect width="20" height="21" fill="white" transform="translate(0 0.243652)"/>
</clipPath>
</defs>
</svg>
