<svg width="232" height="28" viewBox="0 0 232 28" fill="none" xmlns="http://www.w3.org/2000/svg">
<path d="M17.416 10.944C16.1467 9.39467 14.5787 8.62 12.712 8.62C11.8907 8.62 11.1253 8.76933 10.416 9.068C9.72533 9.36667 9.128 9.77733 8.624 10.3C8.12 10.804 7.71867 11.4107 7.42 12.12C7.14 12.8293 7 13.5947 7 14.416C7 15.256 7.14 16.0307 7.42 16.74C7.71867 17.4493 8.12 18.0653 8.624 18.588C9.14667 19.1107 9.75333 19.5213 10.444 19.82C11.1347 20.1187 11.8813 20.268 12.684 20.268C14.4387 20.268 16.016 19.5213 17.416 18.028V24.524L16.856 24.72C16.016 25.0187 15.232 25.2333 14.504 25.364C13.776 25.5133 13.0573 25.588 12.348 25.588C10.892 25.588 9.492 25.3173 8.148 24.776C6.82267 24.216 5.64667 23.4413 4.62 22.452C3.612 21.444 2.8 20.2587 2.184 18.896C1.568 17.5147 1.26 16.012 1.26 14.388C1.26 12.764 1.55867 11.28 2.156 9.936C2.772 8.57333 3.584 7.40667 4.592 6.436C5.61867 5.44667 6.804 4.68133 8.148 4.14C9.492 3.58 10.9013 3.3 12.376 3.3C13.216 3.3 14.0373 3.39333 14.84 3.58C15.6613 3.748 16.52 4.01867 17.416 4.392V10.944ZM23.1838 14.864L15.4838 3.888H22.0358L25.9558 9.656L29.8478 3.888H36.3998L28.6718 14.864V25H23.1838V14.864ZM41.0102 20.744H42.2142C43.5955 20.744 44.5848 20.5667 45.1822 20.212C45.7795 19.8573 46.0782 19.288 46.0782 18.504C46.0782 17.72 45.7795 17.1507 45.1822 16.796C44.5848 16.4413 43.5955 16.264 42.2142 16.264H41.0102V20.744ZM41.0102 12.176H42.0182C43.7355 12.176 44.5942 11.4947 44.5942 10.132C44.5942 8.76933 43.7355 8.088 42.0182 8.088H41.0102V12.176ZM35.5222 3.888H43.6982C45.6395 3.888 47.1142 4.35467 48.1222 5.288C49.1302 6.22133 49.6342 7.56533 49.6342 9.32C49.6342 10.384 49.4382 11.2707 49.0462 11.98C48.6728 12.6707 48.0942 13.2587 47.3102 13.744C48.0942 13.8933 48.7568 14.1267 49.2982 14.444C49.8582 14.7427 50.3062 15.116 50.6422 15.564C50.9968 16.012 51.2488 16.516 51.3982 17.076C51.5475 17.636 51.6222 18.2333 51.6222 18.868C51.6222 19.8573 51.4448 20.7347 51.0902 21.5C50.7542 22.2653 50.2688 22.9093 49.6342 23.432C49.0182 23.9547 48.2622 24.3467 47.3662 24.608C46.4702 24.8693 45.4622 25 44.3422 25H35.5222V3.888ZM64.1209 8.536H57.5969V12.064H63.7569V16.712H57.5969V20.352H64.1209V25H52.1089V3.888H64.1209V8.536ZM70.7656 13.324H71.8016C72.8843 13.324 73.715 13.1 74.2936 12.652C74.8723 12.204 75.1616 11.56 75.1616 10.72C75.1616 9.88 74.8723 9.236 74.2936 8.788C73.715 8.34 72.8843 8.116 71.8016 8.116H70.7656V13.324ZM82.8336 25H76.0016L70.7656 16.88V25H65.2776V3.888H73.8176C74.9936 3.888 76.0203 4.06533 76.8976 4.42C77.775 4.756 78.4936 5.22267 79.0536 5.82C79.6323 6.41733 80.0616 7.108 80.3416 7.892C80.6403 8.676 80.7896 9.516 80.7896 10.412C80.7896 12.0173 80.3976 13.324 79.6136 14.332C78.8483 15.3213 77.7096 15.9933 76.1976 16.348L82.8336 25ZM94.5328 13.324H95.5688C96.6515 13.324 97.4821 13.1 98.0608 12.652C98.6395 12.204 98.9288 11.56 98.9288 10.72C98.9288 9.88 98.6395 9.236 98.0608 8.788C97.4821 8.34 96.6515 8.116 95.5688 8.116H94.5328V13.324ZM106.601 25H99.7688L94.5328 16.88V25H89.0448V3.888H97.5848C98.7608 3.888 99.7875 4.06533 100.665 4.42C101.542 4.756 102.261 5.22267 102.821 5.82C103.399 6.41733 103.829 7.108 104.109 7.892C104.407 8.676 104.557 9.516 104.557 10.412C104.557 12.0173 104.165 13.324 103.381 14.332C102.615 15.3213 101.477 15.9933 99.9648 16.348L106.601 25ZM118.108 8.536H111.584V12.064H117.744V16.712H111.584V20.352H118.108V25H106.096V3.888H118.108V8.536ZM124.753 13.576H126.573C128.589 13.576 129.597 12.6987 129.597 10.944C129.597 9.18933 128.589 8.312 126.573 8.312H124.753V13.576ZM124.753 25H119.265V3.888H128.001C130.372 3.888 132.182 4.504 133.433 5.736C134.702 6.968 135.337 8.704 135.337 10.944C135.337 13.184 134.702 14.92 133.433 16.152C132.182 17.384 130.372 18 128.001 18H124.753V25ZM140.23 14.444C140.23 15.284 140.388 16.0587 140.706 16.768C141.023 17.4773 141.452 18.0933 141.994 18.616C142.535 19.1387 143.16 19.5493 143.87 19.848C144.598 20.128 145.363 20.268 146.166 20.268C146.968 20.268 147.724 20.128 148.434 19.848C149.162 19.5493 149.796 19.1387 150.338 18.616C150.898 18.0933 151.336 17.4773 151.654 16.768C151.971 16.0587 152.13 15.284 152.13 14.444C152.13 13.604 151.971 12.8293 151.654 12.12C151.336 11.4107 150.898 10.7947 150.338 10.272C149.796 9.74933 149.162 9.348 148.434 9.068C147.724 8.76933 146.968 8.62 146.166 8.62C145.363 8.62 144.598 8.76933 143.87 9.068C143.16 9.348 142.535 9.74933 141.994 10.272C141.452 10.7947 141.023 11.4107 140.706 12.12C140.388 12.8293 140.23 13.604 140.23 14.444ZM134.49 14.444C134.49 12.876 134.779 11.42 135.358 10.076C135.936 8.71333 136.739 7.528 137.766 6.52C138.792 5.512 140.015 4.728 141.434 4.168C142.871 3.58933 144.448 3.3 146.166 3.3C147.864 3.3 149.432 3.58933 150.87 4.168C152.307 4.728 153.539 5.512 154.566 6.52C155.611 7.528 156.423 8.71333 157.002 10.076C157.58 11.42 157.87 12.876 157.87 14.444C157.87 16.012 157.58 17.4773 157.002 18.84C156.423 20.184 155.611 21.36 154.566 22.368C153.539 23.376 152.307 24.1693 150.87 24.748C149.432 25.308 147.864 25.588 146.166 25.588C144.448 25.588 142.871 25.308 141.434 24.748C140.015 24.1693 138.792 23.376 137.766 22.368C136.739 21.36 135.936 20.184 135.358 18.84C134.779 17.4773 134.49 16.012 134.49 14.444ZM164.024 13.324H165.06C166.143 13.324 166.974 13.1 167.552 12.652C168.131 12.204 168.42 11.56 168.42 10.72C168.42 9.88 168.131 9.236 167.552 8.788C166.974 8.34 166.143 8.116 165.06 8.116H164.024V13.324ZM176.092 25H169.26L164.024 16.88V25H158.536V3.888H167.076C168.252 3.888 169.279 4.06533 170.156 4.42C171.034 4.756 171.752 5.22267 172.312 5.82C172.891 6.41733 173.32 7.108 173.6 7.892C173.899 8.676 174.048 9.516 174.048 10.412C174.048 12.0173 173.656 13.324 172.872 14.332C172.107 15.3213 170.968 15.9933 169.456 16.348L176.092 25ZM183.623 8.536V25H178.135V8.536H173.627V3.888H188.131V8.536H183.623Z" fill="white"/>
</svg>
