<svg width="18" height="18" viewBox="0 0 18 18" fill="none" xmlns="http://www.w3.org/2000/svg">
<path d="M15.1875 18H13.7812C12.8493 17.9654 12.85 16.628 13.7812 16.5938H15.1875C15.9629 16.5938 16.5938 15.9629 16.5938 15.1875V13.7812C16.6283 12.8493 17.9658 12.85 18 13.7812V15.1875C18 16.7383 16.7383 18 15.1875 18ZM4.21875 18H2.8125C1.26169 18 0 16.7383 0 15.1875V13.7812C0.0345586 12.8493 1.37201 12.85 1.40625 13.7812V15.1875C1.40625 15.9629 2.03709 16.5938 2.8125 16.5938H4.21875C5.15067 16.6283 5.14997 17.9658 4.21875 18ZM11.8828 15.5383H6.01172C4.84861 15.5383 3.90234 14.592 3.90234 13.4289V10.3711H0.703125C-0.228797 10.3365 -0.228094 8.99909 0.703125 8.96484H17.2969C18.2288 8.9994 18.2281 10.3369 17.2969 10.3711H13.9922V13.4289C13.9922 14.592 13.0459 15.5383 11.8828 15.5383ZM5.30859 10.3711V13.4289C5.30859 13.8166 5.62402 14.132 6.01172 14.132H11.8828C12.2705 14.132 12.5859 13.8166 12.5859 13.4289V10.3711H5.30859ZM13.2891 7.5632C12.9007 7.5632 12.5859 7.24841 12.5859 6.86007V6.09202L10.2205 3.72656H6.01502C5.62785 3.72656 5.31246 4.04156 5.3119 4.42874L5.30859 6.85642C5.30807 7.2444 4.99335 7.55859 4.6055 7.55859C4.60515 7.55859 4.60484 7.55859 4.60452 7.55859C4.21618 7.55807 3.90185 7.24286 3.90234 6.85452L3.90565 4.42684C3.90723 3.26531 4.8535 2.32035 6.01502 2.32035H10.2205C10.5962 2.32035 10.9493 2.46667 11.2149 2.73231L13.5803 5.09766C13.8459 5.36333 13.9922 5.71648 13.9922 6.09202V6.86007C13.9922 7.24841 13.6774 7.5632 13.2891 7.5632ZM17.2969 4.92188C16.9085 4.92188 16.5938 4.60709 16.5938 4.21875V2.8125C16.5938 2.03709 15.9629 1.40625 15.1875 1.40625H13.7812C12.8493 1.37169 12.85 0.0342422 13.7812 0H15.1875C16.7383 0 18 1.26169 18 2.8125V4.21875C18 4.60709 17.6852 4.92188 17.2969 4.92188ZM0.703125 4.92188C0.314789 4.92188 0 4.60709 0 4.21875V2.8125C0 1.26169 1.26169 0 2.8125 0H4.25391C5.18583 0.0345586 5.18512 1.37201 4.25391 1.40625H2.8125C2.03709 1.40625 1.40625 2.03709 1.40625 2.8125V4.21875C1.40625 4.60709 1.09146 4.92188 0.703125 4.92188Z" fill="#0782F4"/>
</svg>
